<?xml version="1.0" encoding="UTF-8" standalone="no"?><svg xmlns="http://www.w3.org/2000/svg" xmlns:xlink="http://www.w3.org/1999/xlink" contentScriptType="text/ecmascript" zoomAndPan="magnify" contentStyleType="text/css" stroke="#000000" stroke-linecap="square" version="1" width="970" stroke-miterlimit="10" fill="#000000" preserveAspectRatio="xMidYMid meet" viewBox="0 0 970 550" height="550"><defs><clipPath id="a"><path d="M5 5V545H965V5Z"/></clipPath><clipPath id="b" clip-path="url(#a)"><path d="M5 545H965V5H5Z"/></clipPath><clipPath id="e" clip-path="url(#b)"><path d="M5 545H965V5H5Z"/></clipPath><clipPath id="c"><path d="M5 5V545H965V5Z"/></clipPath><clipPath id="f" clip-path="url(#c)"><path d="M5 545H965V5H5Z"/></clipPath></defs><g><defs><linearGradient x1="105" gradientTransform="matrix(1.0 0.0 0.0 -1.0 5.0 545.0000610351562)" y1="645" x2="855" gradientUnits="userSpaceOnUse" y2="-105" xlink:type="simple" xlink:actuate="onLoad" id="d" xlink:show="other" spreadMethod="pad"><stop stop-color="#ffffff" offset="0%"/><stop stop-color="#dce1f4" offset="100%"/></linearGradient></defs><g fill="url(#d)" stroke="none"><path d="M5 545V5H965V545Z" clip-path="url(#e)"/><path d="M673 462.75l4.84-.06 4.82-.18 4.78-.3 4.75-.42 4.72-.54 4.68-.66 4.64-.77 4.61-.88 4.56-.99 4.52-1.1 4.48-1.21 4.43-1.32 4.38-1.42 4.34-1.53 4.29-1.63 4.24-1.73 4.18-1.83 4.13-1.93 4.08-2.03 4.02-2.12 3.96-2.21 3.9-2.31 3.84-2.4 3.78-2.48 3.71-2.58 3.65-2.66 3.58-2.74 3.51-2.83 3.45-2.91 3.37-2.99 3.29-3.07 3.23-3.15 3.14-3.22 3.07-3.3 2.99-3.37 2.92-3.44 2.82-3.51 2.75-3.58 2.66-3.65 2.57-3.71 2.49-3.78 2.4-3.84 2.3-3.9 2.22-3.96 2.12-4.02 2.02-4.08 1.93-4.13 1.84-4.19h-.01l1.74-4.23 1.63-4.29 1.52-4.34 1.43-4.39 1.32-4.43 1.21-4.48 1.1-4.52 1-4.56h-.01l.89-4.6.77-4.64.65-4.68.54-4.72.42-4.75.31-4.79.18-4.81.06-4.85-.06-4.84-.18-4.82-.31-4.78-.42-4.75-.54-4.72-.65-4.68-.77-4.64-.89-4.61h.01l-1-4.56-1.1-4.52-1.21-4.48-1.32-4.43-1.42-4.38-1.53-4.34-1.63-4.29-1.74-4.24H846l-1.83-4.18-1.93-4.13-2.03-4.08-2.12-4.02-2.21-3.96-2.31-3.9-2.4-3.84-2.48-3.78-2.58-3.71-2.66-3.65-2.74-3.58-2.83-3.51-2.91-3.45-2.99-3.37-3.07-3.29-3.15-3.23-3.22-3.14-3.3-3.07-3.37-2.99-3.44-2.92-3.51-2.82-3.58-2.75-3.65-2.66-3.71-2.57-3.78-2.49-3.84-2.4-3.9-2.3-3.96-2.22-4.02-2.12-4.08-2.02-4.13-1.93-4.19-1.84v.01l-4.23-1.74-4.29-1.63-4.34-1.52-4.39-1.43-4.43-1.32-4.48-1.21-4.52-1.1-4.56-1-4.6-.88-4.64-.77-4.68-.65-4.72-.54-4.75-.42-4.79-.31-4.81-.18-4.85-.06-4.84.06-4.82.18-4.78.31-4.75.42-4.72.54-4.68.65-4.64.77-4.61.88-4.56 1-4.52 1.1-4.48 1.21-4.43 1.32-4.38 1.42-4.34 1.53-4.29 1.63-4.24 1.74V102l-4.18 1.83-4.13 1.93-4.08 2.03-4.02 2.12-3.96 2.21-3.9 2.31-3.84 2.4-3.78 2.48-3.71 2.58-3.65 2.66-3.58 2.74-3.51 2.83-3.45 2.91-3.37 2.99-3.29 3.07-3.23 3.15-3.14 3.22-3.07 3.3-2.99 3.37-2.92 3.44-2.82 3.51-2.75 3.58-2.66 3.65-2.57 3.71-2.49 3.78-2.4 3.84-2.3 3.9-2.22 3.96-2.12 4.02-2.02 4.08-1.93 4.13-1.84 4.19h.01l-1.74 4.23-1.63 4.29-1.52 4.34-1.43 4.39-1.32 4.43-1.21 4.48-1.1 4.52-1 4.56h.01l-.89 4.6-.77 4.64-.65 4.68-.54 4.72-.42 4.75-.31 4.79-.18 4.81-.06 4.85.06 4.84.18 4.82.31 4.78.42 4.75.54 4.72.65 4.68.77 4.64.89 4.61h-.01l1 4.56 1.1 4.52 1.21 4.48 1.32 4.43 1.42 4.38 1.53 4.34 1.63 4.29 1.74 4.24H500l1.83 4.18 1.93 4.13 2.03 4.08 2.12 4.02 2.21 3.96 2.31 3.9 2.4 3.84 2.48 3.78 2.58 3.71 2.66 3.65 2.74 3.58 2.83 3.51 2.91 3.45 2.99 3.37 3.07 3.29 3.15 3.23 3.22 3.14 3.3 3.07 3.37 2.99 3.44 2.92 3.51 2.82 3.58 2.75 3.65 2.66 3.71 2.57 3.78 2.49 3.84 2.4 3.9 2.3 3.96 2.22 4.02 2.12 4.08 2.02 4.13 1.93 4.19 1.83 4.23 1.73 4.29 1.63 4.34 1.53 4.39 1.42 4.43 1.32 4.48 1.21 4.52 1.1 4.56.99 4.6.88 4.64.77 4.68.65 4.73.54 4.74.42 4.78.3 4.82.18 4.85.06Zm0 .5l-4.86-.06-4.83-.18-4.79-.3-4.77-.42-4.73-.54-4.69-.66-4.65-.77-4.62-.88-4.57-1-4.54-1.11-4.49-1.21-4.44-1.32-4.4-1.43-4.35-1.53-4.3-1.63-4.25-1.74-4.19-1.84-4.14-1.93-4.09-2.03-4.03-2.13-3.97-2.22-3.91-2.31-3.86-2.41-3.78-2.49-3.73-2.58-3.65-2.67-3.59-2.75-3.52-2.84-3.46-2.92-3.38-2.99-3.3-3.08-3.23-3.16-3.16-3.23-3.08-3.3-2.99-3.38-2.92-3.46-2.84-3.52-2.75-3.59-2.67-3.65-2.58-3.73-2.49-3.78-2.41-3.86-2.31-3.91-2.22-3.97-2.13-4.03-2.03-4.09-1.93-4.14-1.84-4.19-1.73-4.25-1.64-4.3-1.53-4.35-1.43-4.4-1.32-4.44-1.21-4.49-1.11-4.54-1-4.57-.88-4.62-.77-4.65-.66-4.69-.54-4.73-.42-4.77-.31-4.79-.18-4.83-.06-4.86.06-4.86.18-4.83.31-4.79.42-4.77.54-4.73.66-4.69.77-4.65.88-4.62 1-4.57 1.11-4.54 1.21-4.49 1.32-4.44 1.43-4.4 1.53-4.35 1.64-4.3 1.73-4.25 1.84-4.19 1.93-4.14 2.03-4.09 2.13-4.03 2.22-3.97 2.31-3.91 2.41-3.86 2.49-3.78 2.58-3.73 2.67-3.65 2.75-3.59 2.84-3.52 2.92-3.46 2.99-3.38 3.08-3.3 3.16-3.23 3.23-3.16 3.3-3.08 3.38-2.99 3.46-2.92 3.52-2.84 3.59-2.75 3.65-2.67 3.73-2.58 3.78-2.49 3.86-2.41 3.91-2.31 3.97-2.22 4.03-2.13 4.09-2.03 4.14-1.93 4.19-1.84 4.25-1.73 4.3-1.64 4.35-1.53 4.4-1.43 4.44-1.32 4.49-1.21 4.54-1.11 4.57-1 4.62-.88 4.65-.77 4.69-.66 4.73-.54 4.77-.42 4.79-.31 4.83-.18 4.86-.06 4.86.06 4.83.18 4.79.31 4.77.42 4.73.54 4.69.66 4.65.77 4.62.88 4.57 1 4.54 1.11 4.49 1.21 4.44 1.32 4.4 1.43 4.35 1.53 4.3 1.64 4.25 1.73 4.19 1.84 4.14 1.93 4.09 2.03 4.03 2.13 3.97 2.22 3.91 2.31 3.85 2.41 3.79 2.49 3.73 2.58 3.65 2.67 3.59 2.75 3.52 2.84 3.46 2.92 3.38 2.99 3.3 3.08 3.23 3.16 3.16 3.23 3.08 3.3 2.99 3.38 2.92 3.46 2.84 3.52 2.75 3.59 2.67 3.65 2.58 3.73 2.49 3.78 2.41 3.86 2.31 3.91 2.22 3.97 2.13 4.03 2.03 4.09 1.93 4.14 1.84 4.19 1.73 4.25 1.64 4.3 1.53 4.35 1.43 4.4 1.32 4.44 1.21 4.49 1.11 4.54 1 4.57.88 4.62.77 4.65.66 4.69.54 4.73.42 4.77.31 4.79.18 4.83.06 4.86-.06 4.86-.18 4.83-.31 4.79-.42 4.77-.54 4.73-.66 4.69-.77 4.65-.88 4.62-1 4.57-1.11 4.54-1.21 4.49-1.32 4.44-1.43 4.4-1.53 4.35-1.64 4.3-1.73 4.25-1.84 4.19-1.93 4.14-2.03 4.09-2.13 4.03-2.22 3.97-2.31 3.91-2.41 3.86-2.49 3.78-2.58 3.73-2.67 3.65-2.75 3.59-2.84 3.52-2.92 3.46-2.99 3.38-3.08 3.3-3.16 3.23-3.23 3.16-3.3 3.08-3.38 2.99-3.46 2.92-3.52 2.84-3.59 2.75-3.65 2.67-3.73 2.58-3.79 2.49-3.85 2.41-3.91 2.31-3.97 2.22-4.03 2.13-4.09 2.03-4.14 1.93-4.19 1.84-4.25 1.74-4.3 1.63-4.35 1.53-4.4 1.43-4.44 1.32-4.49 1.21-4.54 1.11-4.57 1-4.62.88-4.65.77-4.69.66-4.73.54-4.77.42-4.79.3-4.83.18-4.86.06Zm0 0" clip-path="url(#f)"/><path fill="#31489f" d="M837.58 212.8l3.43 9.38C846.2 238.87 849 256.61 849 275c0 98.09-79.52 177.62-177.62 177.62V284.38Z" fill-rule="evenodd" clip-path="url(#f)"/><path fill="#ffffff" d="M525.38 275c0-80.63 65.37-146 146-146 80.64 0 146 65.37 146 146s-65.36 146-146 146c-80.63 0-146-65.37-146-146Z" fill-rule="evenodd" clip-path="url(#f)"/></g></g></svg>